<svg width="960" height="360" viewBox="0 0 960 360" fill="none" xmlns="http://www.w3.org/2000/svg" role="img" aria-labelledby="title desc">
  <title id="title">zenme logo</title>
  <desc id="desc">Minimal black and white zenme logo using lines, dots, and nodes to express zen activating me.</desc>
  <rect width="960" height="360" fill="white"/>
  <g stroke="#0A0A0A" stroke-linecap="round" stroke-linejoin="round">
    <path d="M329 156C358 121 404 119 434 151C462 181 507 183 538 152C569 121 620 123 649 158" stroke-width="7"/>
    <path d="M329 204C358 239 404 241 434 209C462 179 507 177 538 208C569 239 620 237 649 202" stroke-width="7"/>
    <path d="M434 151L538 208" stroke-width="5"/>
    <path d="M434 209L538 152" stroke-width="5"/>
  </g>
  <g fill="#0A0A0A">
    <circle cx="329" cy="156" r="10"/>
    <circle cx="329" cy="204" r="10"/>
    <circle cx="434" cy="151" r="13"/>
    <circle cx="434" cy="209" r="13"/>
    <circle cx="538" cy="152" r="13"/>
    <circle cx="538" cy="208" r="13"/>
    <circle cx="649" cy="158" r="16"/>
    <circle cx="649" cy="202" r="16"/>
    <circle cx="689" cy="180" r="5"/>
  </g>
  <g stroke="#0A0A0A" stroke-linecap="round">
    <path d="M674 180H704" stroke-width="4"/>
    <path d="M689 165V195" stroke-width="4"/>
  </g>
  <text x="480" y="299" text-anchor="middle" fill="#0A0A0A" font-family="Inter, ui-sans-serif, system-ui, -apple-system, BlinkMacSystemFont, 'Segoe UI', sans-serif" font-size="48" font-weight="500" letter-spacing="0">zenme</text>
</svg>
